[Header]
FileType HTR
DataType HTRS
FileVersion 1
NumSegments 73
NumFrames 2
DataFrameRate 24
EulerRotationOrder ZYX
CalibrationUnits mm
RotationUnits Degrees
GlobalAxisofGravity Y
BoneLengthAxis Y
ScaleFactor 1.0
[SegmentNames&Hierarchy]
Hips	GLOBAL
Spine	Hips
Spine1	Spine
Spine2	Spine1
Neck	Spine2
Head	Neck
HeadEnd	Head
RightEye	Head
LeftEye	Head
RightShoulder	Spine2
RightArm	RightShoulder
RightForeArm	RightArm
RightHand	RightForeArm
RightFingerBase	RightHand
RightHandThumb1	RightFingerBase
RightHandThumb2	RightHandThumb1
RightHandThumb3	RightHandThumb2
RightHandThumb4	RightHandThumb3
RightHandIndex0	RightFingerBase
RightHandIndex1	RightHandIndex0
RightHandIndex2	RightHandIndex1
RightHandIndex3	RightHandIndex2
RightHandIndex4	RightHandIndex3
RightHandMiddle1	RightFingerBase
RightHandMiddle2	RightHandMiddle1
RightHandMiddle3	RightHandMiddle2
RightHandMiddle4	RightHandMiddle3
RightHandRing1	RightFingerBase
RightHandRing2	RightHandRing1
RightHandRing3	RightHandRing2
RightHandRing4	RightHandRing3
RightHandPinky0	RightFingerBase
RightHandPinky1	RightHandPinky0
RightHandPinky2	RightHandPinky1
RightHandPinky3	RightHandPinky2
RightHandPinky4	RightHandPinky3
LeftShoulder	Spine2
LeftArm	LeftShoulder
LeftForeArm	LeftArm
LeftHand	LeftForeArm
LeftFingerBase	LeftHand
LeftHandThumb1	LeftFingerBase
LeftHandThumb2	LeftHandThumb1
LeftHandThumb3	LeftHandThumb2
LeftHandThumb4	LeftHandThumb3
LeftHandIndex0	LeftFingerBase
LeftHandIndex1	LeftHandIndex0
LeftHandIndex2	LeftHandIndex1
LeftHandIndex3	LeftHandIndex2
LeftHandIndex4	LeftHandIndex3
LeftHandMiddle1	LeftFingerBase
LeftHandMiddle2	LeftHandMiddle1
LeftHandMiddle3	LeftHandMiddle2
LeftHandMiddle4	LeftHandMiddle3
LeftHandRing1	LeftFingerBase
LeftHandRing2	LeftHandRing1
LeftHandRing3	LeftHandRing2
LeftHandRing4	LeftHandRing3
LeftHandPinky0	LeftFingerBase
LeftHandPinky1	LeftHandPinky0
LeftHandPinky2	LeftHandPinky1
LeftHandPinky3	LeftHandPinky2
LeftHandPinky4	LeftHandPinky3
RightUpLeg	Hips
RightLeg	RightUpLeg
RightFoot	RightLeg
RightToeBase	RightFoot
RightToeEnd	RightToeBase
LeftUpLeg	Hips
LeftLeg	LeftUpLeg
LeftFoot	LeftLeg
LeftToeBase	LeftFoot
LeftToeEnd	LeftToeBase
[BasePosition]
Hips	0	0	0	-90	0	0	1
Spine	0	0	0	-90	-90	0	1
Spine1	0	0	0	0	-6.913477599	0	1
Spine2	0	0	0	0	-2.963399918	0	1
Neck	0	0	0	0	28.72983957	0	1
Head	0	0	0	0	-18.85296205	0	1
HeadEnd	0	0	0	180	7.062250077e-031	90	1
RightEye	0	0	0	-0	90	0	1
LeftEye	0	0	0	-0	90	0	1
RightShoulder	0	0	0	-9.832471	-0.9401690171	-95.40830344	1
RightArm	0	0	0	0	-1.125996519	5.48917453	1
RightForeArm	0	0	0	0	2.436994823	0	1
RightHand	0	0	0	2.511548878	9.613686614	14.71609442	1
RightFingerBase	0	0	0	0	0	0	1
RightHandThumb1	0	0	0	-116.2812282	42.48690065	-50.67663625	1
RightHandThumb2	0	0	0	-84.21951428	-17.70222334	7.38661549	1
RightHandThumb3	0	0	0	-89.5340698	-1.061838382	-6.180390122	1
RightHandThumb4	0	0	0	-180	40.09965989	-156.3109829	1
RightHandIndex0	0	0	0	4.427842418	26.53425936	-4.671175846	1
RightHandIndex1	0	0	0	-1.006290781	-34.5965515	-7.017277489	1
RightHandIndex2	0	0	0	-0.1211372881	1.365391446	-6.528981104	1
RightHandIndex3	0	0	0	0.718493931	-5.844290023	-1.952116853	1
RightHandIndex4	0	0	0	-180	-1.007680903	-173.015521	1
RightHandMiddle1	0	0	0	1.212759453	-9.423008964	-21.87251019	1
RightHandMiddle2	0	0	0	-0.06391764782	0.3175210117	-4.114015207	1
RightHandMiddle3	0	0	0	-0.02837742177	0.1833479743	2.583455052	1
RightHandMiddle4	0	0	0	-180	2.253742799	-171.2019661	1
RightHandRing1	0	0	0	1.024036159	-9.14512951	-20.92166287	1
RightHandRing2	0	0	0	-0.2639380485	1.120712185	-6.918198661	1
RightHandRing3	0	0	0	0.8624562677	-3.223623788	-1.736364634	1
RightHandRing4	0	0	0	-180	-0.142962497	-165.037383	1
RightHandPinky0	0	0	0	-3.644848491	-31.10321667	-7.475102696	1
RightHandPinky1	0	0	0	-2.230097681	22.3754039	-11.85603488	1
RightHandPinky2	0	0	0	0.3468517139	-1.93809926	-4.748723167	1
RightHandPinky3	0	0	0	0.3843380283	-3.03717749	2.92708613	1
RightHandPinky4	0	0	0	-180	-2.600102366	-172.7946087	1
LeftShoulder	0	0	0	170.167529	0.9401690171	-84.59169656	1
LeftArm	0	0	0	-6.213220642e-018	-1.125996519	5.48917453	1
LeftForeArm	0	0	0	3.570089123e-006	2.436994823	0	1
LeftHand	0	0	0	2.511545379	9.613687521	14.71609377	1
LeftFingerBase	0	0	0	1.707547293e-006	-0	0	1
LeftHandThumb1	0	0	0	-116.2812297	42.48689933	-50.67663724	1
LeftHandThumb2	0	0	0	8.037892136	-7.035043832	-17.84100306	1
LeftHandThumb3	0	0	0	0.3509520673	6.17932467	-1.068044571	1
LeftHandThumb4	0	0	0	74.2196411	17.89814003	137.3999222	1
LeftHandIndex0	0	0	0	4.427840516	26.53425923	-4.671176696	1
LeftHandIndex1	0	0	0	-1.006290781	-34.5965515	-7.017277489	1
LeftHandIndex2	0	0	0	-0.1211372881	1.365391446	-6.528981104	1
LeftHandIndex3	0	0	0	0.718493931	-5.844290023	-1.952116853	1
LeftHandIndex4	0	0	0	-180	-1.007680903	-173.015521	1
LeftHandMiddle1	0	0	0	1.212757847	-9.4230096	-21.87250993	1
LeftHandMiddle2	0	0	0	-0.06391764786	0.3175210117	-4.114015207	1
LeftHandMiddle3	0	0	0	-0.02837742181	0.1833479743	2.583455052	1
LeftHandMiddle4	0	0	0	-180	2.253742799	-171.2019661	1
LeftHandRing1	0	0	0	1.024034543	-9.14513012	-20.92166261	1
LeftHandRing2	0	0	0	-0.2639380485	1.120712185	-6.918198661	1
LeftHandRing3	0	0	0	0.8624562677	-3.223623788	-1.736364634	1
LeftHandRing4	0	0	0	-180	-0.142962497	-165.037383	1
LeftHandPinky0	0	0	0	-3.644850468	-31.10321689	-7.475101675	1
LeftHandPinky1	0	0	0	-2.230097681	22.3754039	-11.85603488	1
LeftHandPinky2	0	0	0	0.3468517139	-1.93809926	-4.748723167	1
LeftHandPinky3	0	0	0	0.3843380283	-3.03717749	2.92708613	1
LeftHandPinky4	0	0	0	-180	-2.600102366	-172.7946087	1
RightUpLeg	0	0	0	-180	88.31591738	-90	1
RightLeg	0	0	0	0	-3.307220847	0	1
RightFoot	0	0	0	-94.4147791	68.81735023	-4.072373061	1
RightToeBase	0	0	0	0	-0	7.131076561	1
RightToeEnd	0	0	0	0	88.40548641	15.61803979	1
LeftUpLeg	0	0	0	1.082242636e-013	-88.31591738	90	1
LeftLeg	0	0	0	0	-3.307220847	0	1
LeftFoot	0	0	0	-94.4147791	68.81735023	-4.072373061	1
LeftToeBase	0	0	0	0	-0	7.131076561	1
LeftToeEnd	0	0	0	0	88.40548641	15.61803979	1
[Hips]
106	-78.94379425	1007.754028	-509.4415283	-5.24607563	-3.387167931	-14.70560455	1.0
107	-84.46440887	1021.711121	-513.114502	-3.342431068	-1.854604125	-13.22168732	1.0
[Spine]
106	0	1.036292464e-014	46.67046356	-1.294193745	3.582305193	3.507833958	1.0
107	0	1.036292464e-014	46.67046356	-1.376116037	3.157405615	2.108952999	1.0
[Spine1]
106	93.34092712	-2.072584929e-014	1.776356839e-014	-1.022595048	7.456870079	1.835103035	1.0
107	93.34092712	-2.072584929e-014	1.776356839e-014	-1.031786442	6.46867466	1.346648812	1.0
[Spine2]
106	110.2689362	-2.430659467e-014	8.881784197e-015	0.2243790627	6.563960552	0.02252867073	1.0
107	110.2689362	-2.430659467e-014	8.881784197e-015	0.172828719	5.979649544	0.1983226687	1.0
[Neck]
106	272.1245117	-6.393256286e-014	-102.6588287	2.328166962	4.236268997	5.004514694	1.0
107	272.1245117	-6.393256286e-014	-102.6588287	2.26682806	4.223201752	5.935184956	1.0
[Head]
106	109.2242432	-2.491077819e-014	-7.993605777e-014	11.9072628	-13.64398861	-8.846046448	1.0
107	109.2242432	-2.491077819e-014	-7.993605777e-014	10.94121361	-13.32335091	-8.549004555	1.0
[HeadEnd]
106	176.9316254	-3.928671285e-014	4.91083953e-014	0	0	0	1.0
107	176.9316254	-3.928671285e-014	4.91083953e-014	0	0	0	1.0
[RightEye]
106	56.50638199	-33.11345673	-70.58847046	-3.114994834e-014	-1.272221887e-014	8.474700379e-030	1.0
107	56.50638199	-33.11345673	-70.58847046	-3.114994834e-014	-1.272221887e-014	8.474700379e-030	1.0
[LeftEye]
106	56.50532532	33.1135025	-70.58802795	7.016709127e-015	-1.272221887e-014	0	1.0
107	56.50532532	33.1135025	-70.58802795	7.016709127e-015	-1.272221887e-014	0	1.0
[RightShoulder]
106	238.428894	-15.55305099	-71.2572937	-3.217978001	6.955948353	3.440864563	1.0
107	238.428894	-15.55305099	-71.2572937	-3.321361542	6.786716461	4.540773869	1.0
[RightArm]
106	141.8920135	1.643130076e-013	-1.723798276e-014	-22.33172607	-4.822360039	-69.23488617	1.0
107	141.8920135	1.643130076e-013	-1.723798276e-014	-22.3312645	-6.475121975	-71.95474243	1.0
[RightForeArm]
106	295.651123	2.842170943e-013	8.604228441e-014	-6.239359936e-005	105.9938736	-4.278864435e-005	1.0
107	295.651123	2.842170943e-013	8.604228441e-014	-6.138034951e-005	106.2841644	-4.110999726e-005	1.0
[RightHand]
106	253.9360657	-2.842170943e-013	2.953193246e-013	-13.46787167	14.03670406	3.690434694	1.0
107	253.9360657	-2.842170943e-013	2.953193246e-013	-13.55024624	13.41533852	3.268484831	1.0
[RightFingerBase]
106	21.8163414	2.514308206e-013	1.609823386e-014	2.599998337e-016	0	3.435947064e-016	1.0
107	21.8163414	2.514308206e-013	1.609823386e-014	2.320251677e-016	0	3.468858264e-016	1.0
[RightHandThumb1]
106	0.315223217	-25.77882576	-34.99160004	90.00000763	-2.361729821e-005	7.259162089e-007	1.0
107	0.315223217	-25.77882576	-34.99160004	90.00000763	-2.377753844e-005	6.467970479e-007	1.0
[RightHandThumb2]
106	22.53543472	1.132427485e-013	7.771561172e-015	89.99996948	3.630758147e-005	1.782685649e-005	1.0
107	22.53543472	1.132427485e-013	7.771561172e-015	89.99996948	3.656603803e-005	1.783274092e-005	1.0
[RightHandThumb3]
106	35.04462051	1.759703494e-013	-9.103828802e-014	90.00001526	-2.888572999e-005	-3.771192496e-006	1.0
107	35.04462051	1.759703494e-013	-9.103828802e-014	90.00001526	-2.91851793e-005	-3.829100024e-006	1.0
[RightHandThumb4]
106	32.93183899	9.547918012e-014	-7.771561172e-014	1.080778566e-005	-9.464300092e-006	1.460304884e-005	1.0
107	32.93183899	9.547918012e-014	-7.771561172e-014	1.102785336e-005	-9.37884306e-006	1.475393947e-005	1.0
[RightHandIndex0]
106	7.951202393	-0.6496808529	-3.983492613	-1.550520407e-014	-3.180554719e-015	1.808940503e-014	1.0
107	7.951202393	-0.6496808529	-3.983492613	-1.550520407e-014	-3.180554719e-015	1.808940503e-014	1.0
[RightHandIndex1]
106	71.33556366	1.237898672e-013	-7.105427358e-014	3.694038605e-005	1.744303881e-005	9.582568964e-006	1.0
107	71.33556366	1.237898672e-013	-7.105427358e-014	3.714399645e-005	1.753189281e-005	9.68265249e-006	1.0
[RightHandIndex2]
106	42.80506134	-1.202260947e-013	-1.720845688e-014	3.329699393e-005	1.112495738e-006	1.032589898e-005	1.0
107	42.80506134	-1.202260947e-013	-1.720845688e-014	3.348174141e-005	1.077811817e-006	1.067557241e-005	1.0
[RightHandIndex3]
106	24.93278503	7.893859177e-013	2.220446049e-014	-3.526602086e-005	-2.373713869e-005	-7.747151358e-006	1.0
107	24.93278503	7.893859177e-013	2.220446049e-014	-3.569465116e-005	-2.38524317e-005	-8.020715541e-006	1.0
[RightHandIndex4]
106	28.05339432	3.783919792e-014	3.545774785e-014	-8.598541967e-007	3.722020665e-006	-4.467282906e-006	1.0
107	28.05339432	3.783919792e-014	3.545774785e-014	-1.071806764e-006	3.967180874e-006	-4.345564776e-006	1.0
[RightHandMiddle1]
106	67.74620819	0.8650525808	-12.21569538	5.826355846e-005	1.037344373e-005	-1.896728691e-006	1.0
107	67.74620819	0.8650525808	-12.21569538	5.877242802e-005	1.038290429e-005	-1.771692723e-006	1.0
[RightHandMiddle2]
106	49.20084381	-2.47555882e-014	1.387778781e-014	-1.784133201e-005	1.005799459e-005	-7.557093795e-006	1.0
107	49.20084381	-2.47555882e-014	1.387778781e-014	-1.809468631e-005	9.891768968e-006	-7.439853107e-006	1.0
[RightHandMiddle3]
106	31.13799858	-3.621538833e-013	4.30211422e-015	-2.576375118e-005	-1.803980922e-005	7.160630048e-006	1.0
107	31.13799858	-3.621538833e-013	4.30211422e-015	-2.599487743e-005	-1.802819679e-005	7.15140186e-006	1.0
[RightHandMiddle4]
106	26.62631035	2.316430468e-013	1.387778781e-015	-2.433111149e-005	-1.168032213e-006	3.672992079e-006	1.0
107	26.62631035	2.316430468e-013	1.387778781e-015	-2.442040932e-005	-1.22319193e-006	3.757497325e-006	1.0
[RightHandRing1]
106	63.15184784	-0.8650525808	12.21569538	3.71805545e-005	1.145394981e-005	9.71190002e-006	1.0
107	63.15184784	-0.8650525808	12.21569538	3.763459245e-005	1.13349688e-005	9.947910257e-006	1.0
[RightHandRing2]
106	47.11792755	1.379647264e-013	5.606626274e-014	-4.192597044e-005	-1.072161194e-005	-1.885829261e-005	1.0
107	47.11792755	1.379647264e-013	5.606626274e-014	-4.252875078e-005	-1.060232717e-005	-1.922409137e-005	1.0
[RightHandRing3]
106	28.71803093	-6.597153379e-014	-6.661338148e-015	2.183226206e-005	5.496607173e-006	1.362070361e-005	1.0
107	28.71803093	-6.597153379e-014	-6.661338148e-015	2.198311813e-005	5.532675004e-006	1.368797166e-005	1.0
[RightHandRing4]
106	24.54642296	5.63775155e-013	2.402592014e-015	-6.92516769e-005	-1.016377246e-005	-1.488265025e-005	1.0
107	24.54642296	5.63775155e-013	2.402592014e-015	-6.992890121e-005	-1.033704484e-005	-1.509305275e-005	1.0
[RightHandPinky0]
106	6.176146507	-0.8103749156	3.758100986	1.192708046e-015	-0	2.584200622e-014	1.0
107	6.176146507	-0.8103749156	3.758100986	1.192708046e-015	-0	2.584200622e-014	1.0
[RightHandPinky1]
106	58.19955444	2.842170943e-013	5.329070518e-014	5.649666491e-006	1.152019377e-005	2.0990341e-005	1.0
107	58.19955444	2.842170943e-013	5.329070518e-014	5.848861747e-006	1.129390785e-005	2.117969052e-005	1.0
[RightHandPinky2]
106	39.05205536	-9.498261552e-014	-1.859623566e-014	4.196590089e-005	-1.256350401e-006	-6.315529845e-006	1.0
107	39.05205536	-9.498261552e-014	-1.859623566e-014	4.210924089e-005	-1.335053639e-006	-6.203913017e-006	1.0
[RightHandPinky3]
106	20.92533112	-9.361543658e-014	5.342948306e-015	-6.402941654e-005	1.304109901e-005	-1.521379545e-005	1.0
107	20.92533112	-9.361543658e-014	5.342948306e-015	-6.455120456e-005	1.318957766e-005	-1.540227277e-005	1.0
[RightHandPinky4]
106	21.05566788	-2.827382425e-013	1.401656569e-014	-9.206093819e-005	-2.735995622e-005	-2.464617501e-005	1.0
107	21.05566788	-2.827382425e-013	1.401656569e-014	-9.284848056e-005	-2.727325773e-005	-2.470162144e-005	1.0
[LeftShoulder]
106	238.4311829	15.55310059	-71.25769043	-0.7929952145	5.876178265	3.646766424	1.0
107	238.4311829	15.55310059	-71.25769043	-0.6906557083	5.189920425	3.471707106	1.0
[LeftArm]
106	-141.8922424	0.006949160714	-5.426215033e-014	-18.3336525	3.245430231	-55.71816254	1.0
107	-141.8922424	0.006949160714	-5.426215033e-014	-17.4274025	1.166847467	-61.53276825	1.0
[LeftForeArm]
106	-295.6510925	0	-4.279579116e-006	4.163325139e-005	110.9815063	2.637446232e-005	1.0
107	-295.6510925	0	-4.279579116e-006	4.188587991e-005	110.2644424	2.662709267e-005	1.0
[LeftHand]
106	-253.9364624	2.786799769e-007	-5.565790161e-006	3.769004822	9.966219902	0.3186931014	1.0
107	-253.9364624	2.786799769e-007	-5.565790161e-006	1.815059423	10.14078808	-0.6508664489	1.0
[LeftFingerBase]
106	-21.81822968	-0.005536882672	-9.225585382e-005	1.618413307e-006	-8.66641949e-006	-3.533906693e-006	1.0
107	-21.81822968	-0.005536882672	-9.225585382e-005	1.671204927e-006	-8.89932744e-006	-3.685959882e-006	1.0
[LeftHandThumb1]
106	-0.3139604926	25.78034973	34.99176788	-1.328657527e-005	-2.057201891e-005	-1.533143222e-005	1.0
107	-0.3139604926	25.78034973	34.99176788	-1.337048343e-005	-2.073825635e-005	-1.536233503e-005	1.0
[LeftHandThumb2]
106	-22.53630829	0.0002837101929	0.001485430403	1.159913973e-005	-1.222921128e-005	1.357771816e-005	1.0
107	-22.53630829	0.0002837101929	0.001485430403	1.185003566e-005	-1.245602198e-005	1.36507042e-005	1.0
[LeftHandThumb3]
106	-35.04284286	-0.0001289721695	-0.005385319702	-8.607101336e-006	6.497988124e-006	-5.406927812e-006	1.0
107	-35.04284286	-0.0001289721695	-0.005385319702	-8.825295481e-006	6.695912361e-006	-5.532434443e-006	1.0
[LeftHandThumb4]
106	-32.93151093	9.614243027e-005	-0.001056680572	-1.649454248e-006	3.579157237e-006	-3.597473324e-006	1.0
107	-32.93151093	9.614243027e-005	-0.001056680572	-1.599951588e-006	3.630648052e-006	-3.608827001e-006	1.0
[LeftHandIndex0]
106	-7.949762821	0.6518924832	3.983615637	0	0	0	1.0
107	-7.949762821	0.6518924832	3.983615637	0	0	0	1.0
[LeftHandIndex1]
106	-71.33573914	4.009194527e-005	-0.0001216670644	1.151148263e-005	-4.273742888e-006	4.15555478e-005	1.0
107	-71.33573914	4.009194527e-005	-0.0001216670644	1.157935458e-005	-4.430681656e-006	4.216707748e-005	1.0
[LeftHandIndex2]
106	-42.80513763	-0.0004867216921	2.274473809e-005	2.222292642e-005	3.682040273e-008	-6.69441124e-006	1.0
107	-42.80513763	-0.0004867216921	2.274473809e-005	2.227316145e-005	1.146033028e-007	-6.718794793e-006	1.0
[LeftHandIndex3]
106	-24.93229675	-0.002930393675	7.19765012e-006	8.606745723e-006	7.655330592e-006	-3.50668256e-006	1.0
107	-24.93229675	-0.002930393675	7.19765012e-006	8.902644367e-006	7.629945685e-006	-3.657751677e-006	1.0
[LeftHandIndex4]
106	-28.05332565	-0.001307393424	-1.092151649e-007	1.900271309e-005	-4.808797712e-006	-1.854141738e-005	1.0
107	-28.05332565	-0.001307393424	-1.092151649e-007	1.908450577e-005	-4.76890682e-006	-1.874459485e-005	1.0
[LeftHandMiddle1]
106	-67.74446869	-0.8599894643	12.21582031	1.486429392e-005	8.694107237e-006	1.778487967e-005	1.0
107	-67.74446869	-0.8599894643	12.21582031	1.486316069e-005	8.729267392e-006	1.802683801e-005	1.0
[LeftHandMiddle2]
106	-49.20037079	-0.004143495578	-1.600813448e-005	-3.49480365e-006	5.80931146e-006	-1.678519766e-005	1.0
107	-49.20037079	-0.004143495578	-1.600813448e-005	-3.672336334e-006	5.741204404e-006	-1.691333273e-005	1.0
[LeftHandMiddle3]
106	-31.13726425	-0.004764806479	-5.678773596e-005	-6.44277236e-007	-7.357289633e-006	7.033685961e-006	1.0
107	-31.13726425	-0.004764806479	-5.678773596e-005	-5.730221346e-007	-7.323060345e-006	7.026898402e-006	1.0
[LeftHandMiddle4]
106	-26.62679863	0.007467714138	6.429820496e-005	5.128639259e-006	3.438452723e-006	-5.315020644e-006	1.0
107	-26.62679863	0.007467714138	6.429820496e-005	5.160278306e-006	3.42517842e-006	-5.307421816e-006	1.0
[LeftHandRing1]
106	-63.1511116	0.8645144105	-12.21551704	2.637216312e-005	6.317917268e-006	5.811275969e-006	1.0
107	-63.1511116	0.8645144105	-12.21551704	2.637947364e-005	6.245614713e-006	5.956098903e-006	1.0
[LeftHandRing2]
106	-47.11856842	0.0009522218024	-2.872048026e-005	-1.114163388e-005	1.336474179e-005	-2.500393066e-006	1.0
107	-47.11856842	0.0009522218024	-2.872048026e-005	-1.115469331e-005	1.353344578e-005	-2.557680091e-006	1.0
[LeftHandRing3]
106	-28.71741867	-0.002360836603	8.843826436e-006	1.649079968e-005	-4.255575277e-006	2.041862899e-005	1.0
107	-28.71741867	-0.002360836603	8.843826436e-006	1.658077417e-005	-4.271718353e-006	2.064753789e-005	1.0
[LeftHandRing4]
106	-24.54695129	0.002331606345	4.959414355e-007	1.552622416e-005	-1.895379e-006	4.906110917e-006	1.0
107	-24.54695129	0.002331606345	4.959414355e-007	1.565797902e-005	-1.909109869e-006	4.833795174e-006	1.0
[LeftHandPinky0]
106	-6.175186157	0.8125487566	-3.758023262	0	0	0	1.0
107	-6.175186157	0.8125487566	-3.758023262	0	0	0	1.0
[LeftHandPinky1]
106	-58.19955826	-0.001245321357	-6.914727419e-005	4.065839676e-005	-4.937750418e-006	4.063685992e-005	1.0
107	-58.19955826	-0.001245321357	-6.914727419e-005	4.105290645e-005	-4.940588951e-006	4.116297714e-005	1.0
[LeftHandPinky2]
106	-39.05273819	0.004963599145	-2.538270201e-005	-1.960586815e-005	2.036302249e-005	-1.128547319e-005	1.0
107	-39.05273819	0.004963599145	-2.538270201e-005	-1.981810965e-005	2.048997703e-005	-1.149150557e-005	1.0
[LeftHandPinky3]
106	-20.92480659	-0.004931366071	6.711302558e-005	5.308703749e-006	-1.393867205e-005	9.099168892e-006	1.0
107	-20.92480659	-0.004931366071	6.711302558e-005	5.173797035e-006	-1.403139777e-005	9.311546819e-006	1.0
[LeftHandPinky4]
106	-21.05467796	-0.0008227663347	-9.761578258e-005	2.064174623e-005	6.030767963e-006	-5.547191904e-006	1.0
107	-21.05467796	-0.0008227663347	-9.761578258e-005	2.054535435e-005	6.085488621e-006	-5.463798061e-006	1.0
[RightUpLeg]
106	-88.96710205	-52.84283066	-41.06762314	6.211826324	25.88308716	10.45623207	1.0
107	-88.96710205	-52.84283066	-41.06762314	6.968608379	24.57113838	8.385437012	1.0
[RightLeg]
106	436.7594604	-8.881784197e-014	-1.598721155e-013	6.313811355e-006	-62.5498085	-0.009942958131	1.0
107	436.7594604	-8.881784197e-014	-1.598721155e-013	5.955186225e-006	-57.00333405	-0.01012617443	1.0
[RightFoot]
106	453.1539612	-5.329070518e-014	-2.220446049e-013	12.18649864	-2.010259867	-9.13122654	1.0
107	453.1539612	-5.329070518e-014	-2.220446049e-013	11.10767078	-5.134522915	-7.049420357	1.0
[RightToeBase]
106	146.876709	-1.776356839e-014	-1.831867991e-014	1.168889958e-005	-1.134564445e-005	11.52839756	1.0
107	146.876709	-1.776356839e-014	-1.831867991e-014	1.187368161e-005	-1.148787669e-005	10.45309067	1.0
[RightToeEnd]
106	70.3217926	1.776356839e-013	-1.776356839e-014	0	0	0	1.0
107	70.3217926	1.776356839e-013	-1.776356839e-014	0	0	0	1.0
[LeftUpLeg]
106	88.96710205	-52.84285736	-41.06717682	21.04937363	-10.01311684	-5.240715504	1.0
107	88.96710205	-52.84285736	-41.06717682	20.52548409	-5.013787746	-1.981655717	1.0
[LeftLeg]
106	-436.7596436	7.105427358e-014	-3.488831862e-005	5.948470061e-005	-1.378192067	0.0001167227674	1.0
107	-436.7596436	7.105427358e-014	-3.488831862e-005	5.991419312e-005	-6.416945934	-0.008499344811	1.0
[LeftFoot]
106	-453.1542358	-7.105427358e-014	3.711377576e-005	7.251648426	-3.265622139	3.8256917	1.0
107	-453.1542358	-7.105427358e-014	3.711377576e-005	8.730381966	-0.9037396312	0.6909761429	1.0
[LeftToeBase]
106	-146.8766174	-1.302345117e-005	-3.889528671e-005	-2.368991954e-005	-9.081388271e-006	-2.785846472	1.0
107	-146.8766174	-1.302345117e-005	-3.889528671e-005	-2.406764543e-005	-9.097178918e-006	1.227460861	1.0
[LeftToeEnd]
106	-70.32167053	7.620360702e-005	8.329622506e-005	0	0	0	1.0
107	-70.32167053	7.620360702e-005	8.329622506e-005	0	0	0	1.0
[EndOfFile]
